<?xml version="1.0" encoding="UTF-8" standalone="no"?>
<!-- Created with Inkscape (http://www.inkscape.org/) -->

<svg
   xmlns:dc="http://purl.org/dc/elements/1.1/"
   xmlns:cc="http://creativecommons.org/ns#"
   xmlns:rdf="http://www.w3.org/1999/02/22-rdf-syntax-ns#"
   xmlns:svg="http://www.w3.org/2000/svg"
   xmlns="http://www.w3.org/2000/svg"
   xmlns:sodipodi="http://sodipodi.sourceforge.net/DTD/sodipodi-0.dtd"
   xmlns:inkscape="http://www.inkscape.org/namespaces/inkscape"
   width="210mm"
   height="297mm"
   viewBox="0 0 210 297"
   version="1.1"
   id="svg8"
   inkscape:version="0.92.2 (5c3e80d, 2017-08-06)"
   sodipodi:docname="MainIcon.svg">
  <defs
     id="defs2" />
  <sodipodi:namedview
     id="base"
     pagecolor="#ffffff"
     bordercolor="#666666"
     borderopacity="1.0"
     inkscape:pageopacity="0.0"
     inkscape:pageshadow="2"
     inkscape:zoom="0.35355339"
     inkscape:cx="-180.36538"
     inkscape:cy="793.53713"
     inkscape:document-units="mm"
     inkscape:current-layer="g8751"
     showgrid="false"
     showguides="true"
     inkscape:guide-bbox="true"
     inkscape:window-width="1920"
     inkscape:window-height="1017"
     inkscape:window-x="-8"
     inkscape:window-y="-8"
     inkscape:window-maximized="1" />
  <metadata
     id="metadata5">
    <rdf:RDF>
      <cc:Work
         rdf:about="">
        <dc:format>image/svg+xml</dc:format>
        <dc:type
           rdf:resource="http://purl.org/dc/dcmitype/StillImage" />
        <dc:title />
      </cc:Work>
    </rdf:RDF>
  </metadata>
  <g
     inkscape:label="Ebene 1"
     inkscape:groupmode="layer"
     id="layer1">
    <g
       id="g839"
       transform="matrix(0.26458333,0,0,0.26458333,-227.0503,205.45417)" />
    <g
       id="g841"
       transform="matrix(0.26458333,0,0,0.26458333,-227.0503,205.45417)" />
    <g
       id="g843"
       transform="matrix(0.26458333,0,0,0.26458333,-227.0503,205.45417)" />
    <g
       id="g845"
       transform="matrix(0.26458333,0,0,0.26458333,-227.0503,205.45417)" />
    <g
       id="g847"
       transform="matrix(0.26458333,0,0,0.26458333,-227.0503,205.45417)" />
    <g
       id="g849"
       transform="matrix(0.26458333,0,0,0.26458333,-227.0503,205.45417)" />
    <g
       id="g851"
       transform="matrix(0.26458333,0,0,0.26458333,-227.0503,205.45417)" />
    <g
       id="g853"
       transform="matrix(0.26458333,0,0,0.26458333,-227.0503,205.45417)" />
    <g
       id="g855"
       transform="matrix(0.26458333,0,0,0.26458333,-227.0503,205.45417)" />
    <g
       id="g857"
       transform="matrix(0.26458333,0,0,0.26458333,-227.0503,205.45417)" />
    <g
       id="g859"
       transform="matrix(0.26458333,0,0,0.26458333,-227.0503,205.45417)" />
    <g
       id="g861"
       transform="matrix(0.26458333,0,0,0.26458333,-227.0503,205.45417)" />
    <g
       id="g863"
       transform="matrix(0.26458333,0,0,0.26458333,-227.0503,205.45417)" />
    <g
       id="g865"
       transform="matrix(0.26458333,0,0,0.26458333,-227.0503,205.45417)" />
    <g
       id="g867"
       transform="matrix(0.26458333,0,0,0.26458333,-227.0503,205.45417)" />
    <g
       id="g8751"
       style="fill:#803300">
      <rect
         ry="40.785332"
         y="69.701637"
         x="24.321518"
         height="165"
         width="165"
         id="rect4772"
         style="opacity:1;fill:#0b5a7d;fill-opacity:0.99356911;stroke:#94fe02;stroke-width:0;stroke-linecap:square;stroke-linejoin:round;stroke-miterlimit:4;stroke-dasharray:none;stroke-dashoffset:0;stroke-opacity:0.0160772;paint-order:normal"
         inkscape:export-filename="C:\Users\luish\Desktop\SoftwareEngineering Repo\AsTAVelo-AdminInterface\public\g1086.png"
         inkscape:export-xdpi="33"
         inkscape:export-ydpi="33" />
      <path
         style="fill:#ffffff;stroke-width:0.30463243"
         id="path831-6-3"
         d="m 149.77616,159.25889 c -18.16828,0 -33.03317,14.38379 -33.03317,31.96408 0,17.58029 14.86489,31.96409 33.03317,31.96409 18.1683,0 33.03317,-14.3838 33.03317,-31.96409 0,-17.58029 -14.86487,-31.96408 -33.03317,-31.96408 z m 0,54.33897 c -12.8829,0 -23.12325,-9.90893 -23.12325,-22.37489 0,-12.46596 10.24035,-22.37488 23.12325,-22.37488 12.88288,0 23.12326,9.90892 23.12326,22.37488 0,12.46596 -10.24038,22.37489 -23.12326,22.37489 z"
         inkscape:connector-curvature="0"
         inkscape:export-filename="C:\Users\luish\Desktop\SoftwareEngineering Repo\AsTAVelo-AdminInterface\public\g1086.png"
         inkscape:export-xdpi="33"
         inkscape:export-ydpi="33" />
      <rect
         transform="matrix(-0.51369155,-0.85797494,0.86668235,-0.49886041,0,0)"
         ry="0"
         y="25.308599"
         x="-244.08176"
         height="10.692549"
         width="26.905659"
         id="rect982-9-0"
         style="opacity:1;fill:#ffffff;fill-opacity:0.99356911;stroke:#00fffa;stroke-width:0.61611825;stroke-linecap:round;stroke-linejoin:round;stroke-miterlimit:4;stroke-dasharray:none;stroke-opacity:0.0160772;paint-order:normal"
         inkscape:export-filename="C:\Users\luish\Desktop\SoftwareEngineering Repo\AsTAVelo-AdminInterface\public\g1086.png"
         inkscape:export-xdpi="33"
         inkscape:export-ydpi="33" />
      <path
         style="fill:#ffffff;stroke-width:0.17998326"
         inkscape:connector-curvature="0"
         d="m 154.35375,85.572938 0.0307,-4.98784 -21.48699,7.26469 c -7.79782,-4.80571 -16.83361,-7.33682 -26.25724,-7.33682 -9.423638,0 -18.459408,2.53111 -26.257058,7.33697 l -21.48699,-7.26484 0.0307,4.98784 c 0.0429,7.03822 2.71632,12.37769 6.57182,16.887582 -4.30448,6.81783 -6.57182,14.57736 -6.57182,22.5463 v 24.62728 l 2.84138,0.64846 c 18.14034,4.14089 31.80265,9.74766 42.995988,17.64516 l 2.24906,1.58684 2.24906,-1.58684 c 11.43674,-8.06907 24.86218,-13.67599 42.25045,-17.64516 l 2.8414,-0.64846 V 125.007 c 0,-7.96896 -2.26734,-15.72847 -6.57182,-22.5463 3.8553,-4.510072 6.52857,-9.849372 6.57163,-16.887762 z m -72.851128,10.05043 1.59878,-1.07638 c 6.8812,-4.63311 15.02086,-7.08203 23.538678,-7.08203 8.51782,0 16.65748,2.44892 23.53868,7.08203 l 1.59878,1.07638 14.34877,-4.8514 c -2.09138,6.89641 -8.16761,11.593462 -14.99885,16.874372 -6.44061,4.9788 -13.09835,10.12725 -17.30964,17.75796 l -7.17793,11.47459 -7.177918,-11.47459 c -4.21129,-7.6309 -10.86903,-12.77916 -17.30962,-17.75796 -6.83108,-5.28072 -12.90729,-9.977782 -14.9985,-16.874222 z m 35.614518,31.490842 -0.0397,-0.0215 0.0422,0.0199 z m 7.20254,-3.95703 c 0.85773,0.71746 1.9911,1.15441 3.2341,1.15441 2.65331,0 4.80714,-1.98869 4.84423,-4.45461 0.33772,0.76874 0.52186,1.59204 0.52186,2.42963 0,3.73557 -3.39623,6.89152 -7.4163,6.89152 -1.62841,0 -3.21881,-0.5654 -4.50428,-1.54495 0.9647,-1.58841 2.08616,-3.07234 3.32039,-4.476 z m -43.437528,-3.30003 c 0.0371,2.46594 2.19092,4.45463 4.84406,4.45463 1.24298,0 2.37637,-0.43695 3.23428,-1.15443 1.23422,1.40365 2.35568,2.88742 3.32038,4.476 -1.28547,0.97958 -2.87605,1.54493 -4.50429,1.54493 -4.02006,0 -7.41629,-3.15594 -7.41629,-6.8915 0,-0.83776 0.18415,-1.66088 0.52186,-2.42963 z m 15.27844,7.25548 0.0422,-0.02 -0.0396,0.0215 z m 50.737898,17.08813 c -15.96415,3.89725 -28.77023,9.2393 -39.88826,16.64286 C 96.041122,153.57282 82.996842,148.23007 66.381682,144.1985 V 125.007 c 0,-6.04146 1.54324,-11.93815 4.48844,-17.24284 2.00714,1.73336 4.12368,3.37825 6.22961,5.00663 -2.64214,2.5172 -4.1947,5.90223 -4.1947,9.51582 0,3.66813 1.55926,7.1378 4.39059,9.76954 2.82647,2.62724 6.5487,4.07417 10.48096,4.07417 2.94895,0 5.82295,-0.87876 8.24237,-2.43293 l 10.621128,16.97917 10.62114,-16.97917 c 2.41941,1.55417 5.29342,2.43293 8.24235,2.43293 3.93228,0 7.65451,-1.44693 10.48097,-4.07417 2.83134,-2.63174 4.39059,-6.10123 4.39059,-9.76954 0,-3.61359 -1.55256,-6.99862 -4.1947,-9.51582 2.10593,-1.62838 4.22248,-3.27327 6.22962,-5.00663 2.9452,5.30452 4.48844,11.20138 4.48844,17.24284 z M 88.404322,99.575348 c 2.35661,-1.47437 4.88077,-2.64514 7.52311,-3.49538 3.65606,2.63002 7.215948,5.704282 10.712648,9.250782 3.49671,-3.5465 7.05659,-6.620952 10.71265,-9.250782 2.64233,0.85024 5.16649,2.02101 7.52311,3.49538 -5.29269,3.367122 -10.38389,7.754842 -15.39456,13.255922 l -2.8412,3.11928 -2.8412,-3.11928 c -5.010678,-5.50108 -10.101878,-9.8888 -15.394558,-13.255922 z"
         id="path815"
         inkscape:export-filename="C:\Users\luish\Desktop\SoftwareEngineering Repo\AsTAVelo-AdminInterface\public\g1086.png"
         inkscape:export-xdpi="33"
         inkscape:export-ydpi="33" />
      <g
         transform="matrix(0.9956992,0,0,1,281.76296,-64.072238)"
         id="g1086"
         style="fill:#ffffff;stroke-width:0.20043147;stroke-miterlimit:4;stroke-dasharray:none"
         inkscape:export-filename="C:\Users\luish\Desktop\SoftwareEngineering Repo\AsTAVelo-AdminInterface\public\g1086.png"
         inkscape:export-xdpi="33"
         inkscape:export-ydpi="33">
        <path
           inkscape:connector-curvature="0"
           d="m -218.09502,223.34187 c -18.16828,0 -33.03316,14.38379 -33.03316,31.96408 0,17.58029 14.86488,31.96409 33.03316,31.96409 18.16829,0 33.03316,-14.3838 33.03316,-31.96409 0,-17.58029 -14.86487,-31.96408 -33.03316,-31.96408 z m 0,54.33897 c -12.8829,0 -23.12325,-9.90893 -23.12325,-22.37489 0,-12.46596 10.24035,-22.37488 23.12325,-22.37488 12.88288,0 23.12325,9.90892 23.12325,22.37488 0,12.46596 -10.24037,22.37489 -23.12325,22.37489 z"
           id="path831-6"
           style="fill:#ffffff;stroke-width:0.20043147;stroke-miterlimit:4;stroke-dasharray:none" />
        <path
           style="opacity:1;fill:#ffffff;fill-opacity:0.99356911;stroke:#94fe02;stroke-width:0.20043147;stroke-linecap:square;stroke-linejoin:round;stroke-miterlimit:4;stroke-dasharray:0.80172589, 0.20043147;stroke-dashoffset:0;stroke-opacity:0.0160772;paint-order:normal"
           d="m -223.98782,251.73853 h 48.0553 v 9.74298 h -48.0553 z"
           id="rect982"
           inkscape:connector-curvature="0" />
        <path
           style="opacity:1;fill:#ffffff;fill-opacity:0.99356911;stroke:#00fffa;stroke-width:0.20044629;stroke-linecap:round;stroke-linejoin:round;stroke-miterlimit:4;stroke-dasharray:none;stroke-opacity:0.0160772;paint-order:normal"
           d="m -316.29788,-121.75304 h 26.90566 v 10.69255 h -26.90566 z"
           id="rect982-9-0-2"
           transform="matrix(0.34987863,-0.93679504,0.9306394,0.36593758,0,0)"
           inkscape:connector-curvature="0" />
      </g>
    </g>
    <path
       style="opacity:1;fill:#aa4400;fill-opacity:0.99356911;stroke:#00fffa;stroke-width:4.54568624;stroke-linecap:round;stroke-linejoin:round;stroke-miterlimit:4;stroke-dasharray:none;stroke-opacity:0.0160772;paint-order:normal"
       d=""
       id="path1108"
       inkscape:connector-curvature="0"
       transform="scale(0.26458333)" />
  </g>
</svg>
