<?xml version="1.0" encoding="UTF-8" standalone="no"?>
<svg
   xmlns:dc="http://purl.org/dc/elements/1.1/"
   xmlns:cc="http://creativecommons.org/ns#"
   xmlns:rdf="http://www.w3.org/1999/02/22-rdf-syntax-ns#"
   xmlns:svg="http://www.w3.org/2000/svg"
   xmlns="http://www.w3.org/2000/svg"
   xmlns:sodipodi="http://sodipodi.sourceforge.net/DTD/sodipodi-0.dtd"
   xmlns:inkscape="http://www.inkscape.org/namespaces/inkscape"
   height="540pt"
   viewBox="0 0 540 540.00105"
   width="540pt"
   version="1.1"
   id="svg32"
   sodipodi:docname="PickUp.svg"
   inkscape:version="0.92.2 (5c3e80d, 2017-08-06)">
  <metadata
     id="metadata38">
    <rdf:RDF>
      <cc:Work
         rdf:about="">
        <dc:format>image/svg+xml</dc:format>
        <dc:type
           rdf:resource="http://purl.org/dc/dcmitype/StillImage" />
        <dc:title />
      </cc:Work>
    </rdf:RDF>
  </metadata>
  <defs
     id="defs36" />
  <sodipodi:namedview
     pagecolor="#ffffff"
     bordercolor="#666666"
     borderopacity="1"
     objecttolerance="10"
     gridtolerance="10"
     guidetolerance="10"
     inkscape:pageopacity="0"
     inkscape:pageshadow="2"
     inkscape:window-width="1920"
     inkscape:window-height="1017"
     id="namedview34"
     showgrid="false"
     inkscape:zoom="0.25"
     inkscape:cx="-1171.5415"
     inkscape:cy="1251.4985"
     inkscape:window-x="-8"
     inkscape:window-y="-8"
     inkscape:window-maximized="1"
     inkscape:current-layer="svg32" />
  <g
     id="g5219"
     transform="matrix(-0.75435947,0,0,0.75000144,857.65097,460.71737)">
    <g
       id="g5187">
      <g
         id="g5185"
         transform="matrix(0.70710678,0.70710678,0.70710678,-0.70710678,561.98942,-382.92645)">
        <path
           inkscape:connector-curvature="0"
           style="fill:#efc75e"
           d="m 278.35331,203.50869 c -1.636,-1.505 -17.773,-0.464 -17.773,-0.464 l -0.184,-17.073 -7.893,-9.022 -18.709,-0.306 -0.018,-0.026 v 0 c -0.079,0.254 -0.009,-18.779 -0.009,-18.779 l -8.733,-6.327 c 0,0 -16.985,-0.499 -17.125,-0.63 l -1.365,-17.449 -15.725,-18.613 c 5.434,-11.726 8.567,-24.756032 8.567,-38.539044 0,-50.711 -41.147,-91.822997 -91.90098,-91.822997 -50.781976,-0.01 -91.928979,41.101997 -91.928979,91.812997 0,50.720044 41.147003,91.840044 91.909979,91.840044 14.07998,0 27.37298,-3.264 39.29998,-8.926 l 104.529,105.159 c 0,0 44.253,0.122 44.253,0.105 l 0.07,-44.664 c 0,0 -6.948,-6.773 -17.265,-16.276 z M 89.930358,80.821646 c -12.032004,0 -21.781004,-9.81 -21.781004,-21.912 0,-12.102 9.748,-21.921 21.781004,-21.921 12.032992,0 21.789962,9.818 21.789962,21.921 0,12.103 -9.75797,21.912 -21.789962,21.912 z"
           id="path5179" />
        <path
           inkscape:connector-curvature="0"
           style="fill:#ca9f30"
           d="m 89.947358,28.210646 c -16.915004,0 -30.628004,13.713 -30.628004,30.628 0,16.915 13.713,30.628012 30.628004,30.628012 16.923982,0 30.627952,-13.713012 30.627952,-30.628012 0,-16.915 -13.70397,-30.628 -30.627952,-30.628 z m 0,43.755 c -7.246004,0 -13.126004,-5.881 -13.126004,-13.126 0,-7.254 5.881,-13.126 13.126004,-13.126 7.245994,0 13.125992,5.872 13.125992,13.126 0,7.245 -5.879998,13.126 -13.125992,13.126 z"
           id="path5181" />
        <path
           inkscape:connector-curvature="0"
           style="fill:#ca9f30"
           d="m 167.79531,145.45469 c -8.357,7.281 -18.027,13.03 -28.624,16.942 l 103.916,102.096 h 43.754 z"
           id="path5183" />
      </g>
    </g>
    <g
       id="g5189" />
    <g
       id="g5191" />
    <g
       id="g5193" />
    <g
       id="g5195" />
    <g
       id="g5197" />
    <g
       id="g5199" />
    <g
       id="g5201" />
    <g
       id="g5203" />
    <g
       id="g5205" />
    <g
       id="g5207" />
    <g
       id="g5209" />
    <g
       id="g5211" />
    <g
       id="g5213" />
    <g
       id="g5215" />
    <g
       id="g5217" />
  </g>
  <g
     transform="translate(66.188093,-76.760399)"
     id="g5235">
    <path
       inkscape:connector-curvature="0"
       style="fill:#ffd4bd"
       d="M 223.92187,372.27734 C 185.23828,377.13672 141.46875,325.01172 90,362.50391 V 481.5 l 100.01562,0.625 c 42.06641,0.26562 54.0586,-1.89844 93.4336,-17.87109 54.74609,-22.20704 134.12109,-58.55469 151.80859,-65.28125 25.72656,-10.08594 16.08985,-47.28907 -15.79687,-39.19532 l -104.44141,28.48047 c 1.00391,-2.47656 1.41016,-5.23047 1.03125,-8.3125 -1.36719,-11.04687 -11.45703,-18.95703 -22.41797,-17.58203 -10.50781,1.32031 -59.20703,8.59375 -69.71094,9.91406 z m 0,0"
       id="path5225" />
    <path
       inkscape:connector-curvature="0"
       d="M 10,342 H 90 V 502 H 10 Z m 0,0"
       id="path5227"
       style="fill:#8dc74e;fill-opacity:1" />
    <path
       inkscape:connector-curvature="0"
       d="m 50,451.99219 c -5.523438,0 -10,4.47656 -10,10 V 462 c 0,5.51953 4.476562,9.99609 10,9.99609 5.523438,0 10,-4.48047 10,-10.0039 0,-5.52344 -4.476562,-10 -10,-10 z m 0,0"
       id="path5229" />
    <path
       inkscape:connector-curvature="0"
       d="m 417,350.08203 c -0.0586,0.0156 -0.11328,0.0273 -0.17188,0.0469 l -91.52734,24.95703 c -1.625,-6.53907 -5.36719,-12.31641 -10.77734,-16.52735 -6.34766,-4.9414 -14.21094,-7.11328 -22.13672,-6.11718 -5.34375,0.67187 -19.75,2.76562 -35.00391,4.97656 -14.52734,2.10937 -29.54297,4.28906 -34.70703,4.9375 -11.8125,1.48047 -25.72265,-4.11328 -40.4414,-10.04297 C 158.89063,342.91406 130.67578,331.55469 100,345.16016 v -3.15625 c 0,-5.52344 -4.476562,-10 -10,-10 H 10 c -5.523438,0 -10,4.47656 -10,10 V 502 c 0,5.52344 4.476562,10 10,10 h 80 c 5.523438,0 10,-4.47656 10,-10 v -10.4375 l 13.34375,0.082 h 0.0625 c 5.49219,0 9.96484,-4.43359 10,-9.9375 0.0352,-5.51953 -4.41406,-10.02734 -9.9375,-10.0625 L 100,471.5625 v -103.75 c 26.18359,-16.49219 49.81641,-6.99609 74.76172,3.04687 16.44141,6.625 33.44922,13.46875 50.40625,11.33594 5.35547,-0.67187 19.79687,-2.76562 35.08594,-4.98437 14.48828,-2.10547 29.47265,-4.27735 34.625,-4.92578 2.62109,-0.32813 5.23437,0.39843 7.35937,2.05468 2.17188,1.69141 3.55078,4.11719 3.88672,6.83594 0.21875,1.76953 0.80469,6.47656 -11.73047,12.28906 -26.52734,12.30469 -54.79297,22.83594 -77.55859,28.89453 -5.33594,1.42188 -8.51172,6.89844 -7.09375,12.23438 1.42187,5.33984 6.90234,8.50781 12.23437,7.09375 23.83594,-6.34375 53.30078,-17.30859 80.83594,-30.07813 9.57422,-4.4414 15.46094,-9.60937 18.93359,-14.82031 L 422,369.44922 c 10.54297,-2.65625 15.95703,1.54687 17.50781,6.36328 1.52344,4.74219 -0.3164,10.85547 -7.85547,13.83203 -7.84375,2.98828 -26.58203,11.23438 -50.28906,21.66797 -31.41016,13.82422 -70.5,31.02734 -101.67187,43.67187 -37.04297,15.02735 -48.35547,17.30079 -86.25782,17.15625 -0.008,0 -0.0195,0 -0.0312,0 -5.50781,0 -9.98046,4.45704 -10,9.96875 -0.0156,5.52344 4.44922,10.01563 9.97266,10.03125 0.81641,0.004 1.62109,0.004 2.41797,0.004 38.61719,0 52.86719,-2.98828 91.41406,-18.62891 31.44141,-12.7539 70.68359,-30.02343 102.21094,-43.89843 22.57031,-9.9336 42.0625,-18.51172 49.39453,-21.30078 0.0312,-0.0117 0.0625,-0.0234 0.0977,-0.0352 18.68359,-7.32813 24.01953,-24.96094 19.63671,-38.58984 C 454.23047,356.26562 439.38672,344.40234 417,350.08203 Z M 20,492 V 352 H 80 V 481.4375 481.4492 492 Z m 0,0"
       id="path5231" />
    <path
       inkscape:connector-curvature="0"
       d="m 153.41016,471.89453 h -0.008 c -5.52343,0 -9.99609,4.48047 -9.99609,10 0,5.52344 4.48047,10 10.00391,10 5.52343,0 10,-4.47656 10,-10 0,-5.51953 -4.47657,-10 -10,-10 z m 0,0"
       id="path5233" />
  </g>
</svg>
