<?xml version="1.0" encoding="UTF-8" standalone="no"?>
<!-- Generator: Adobe Illustrator 21.0.0, SVG Export Plug-In . SVG Version: 6.00 Build 0)  -->

<svg
   xmlns:dc="http://purl.org/dc/elements/1.1/"
   xmlns:cc="http://creativecommons.org/ns#"
   xmlns:rdf="http://www.w3.org/1999/02/22-rdf-syntax-ns#"
   xmlns:svg="http://www.w3.org/2000/svg"
   xmlns="http://www.w3.org/2000/svg"
   xmlns:sodipodi="http://sodipodi.sourceforge.net/DTD/sodipodi-0.dtd"
   xmlns:inkscape="http://www.inkscape.org/namespaces/inkscape"
   version="1.1"
   id="Capa_1"
   x="0px"
   y="0px"
   viewBox="0 0 587.697 587.697"
   style="enable-background:new 0 0 587.697 587.697;"
   xml:space="preserve"
   sodipodi:docname="admin.svg"
   inkscape:version="0.92.2 (5c3e80d, 2017-08-06)"><metadata
     id="metadata72"><rdf:RDF><cc:Work
         rdf:about=""><dc:format>image/svg+xml</dc:format><dc:type
           rdf:resource="http://purl.org/dc/dcmitype/StillImage" /></cc:Work></rdf:RDF></metadata><defs
     id="defs70" /><sodipodi:namedview
     pagecolor="#ffffff"
     bordercolor="#666666"
     borderopacity="1"
     objecttolerance="10"
     gridtolerance="10"
     guidetolerance="10"
     inkscape:pageopacity="0"
     inkscape:pageshadow="2"
     inkscape:window-width="1920"
     inkscape:window-height="1017"
     id="namedview68"
     showgrid="false"
     inkscape:zoom="0.40156746"
     inkscape:cx="293.84851"
     inkscape:cy="293.84851"
     inkscape:window-x="-8"
     inkscape:window-y="-8"
     inkscape:window-maximized="1"
     inkscape:current-layer="Capa_1" /><g
     id="g37" /><g
     id="g39" /><g
     id="g41" /><g
     id="g43" /><g
     id="g45" /><g
     id="g47" /><g
     id="g49" /><g
     id="g51" /><g
     id="g53" /><g
     id="g55" /><g
     id="g57" /><g
     id="g59" /><g
     id="g61" /><g
     id="g63" /><g
     id="g65" /><path
     style="fill:#ffffff;stroke-width:1.01544142"
     id="path831-6-3"
     d="m 437.57322,319.32034 c -60.56092,0 -110.11055,47.94596 -110.11055,106.54693 0,58.60096 49.54963,106.54693 110.11055,106.54693 60.561,0 110.11058,-47.94597 110.11058,-106.54693 0,-58.60097 -49.54958,-106.54693 -110.11058,-106.54693 z m 0,181.1299 c -42.94302,0 -77.07749,-33.02977 -77.07749,-74.58297 0,-41.5532 34.13447,-74.58293 77.07749,-74.58293 42.94293,0 77.07753,33.02973 77.07753,74.58293 0,41.5532 -34.1346,74.58297 -77.07753,74.58297 z"
     inkscape:connector-curvature="0"
     inkscape:export-filename="C:\Users\luish\Desktop\SoftwareEngineering Repo\AsTAVelo-AdminInterface\public\g1086.png"
     inkscape:export-xdpi="33"
     inkscape:export-ydpi="33" /><rect
     transform="matrix(-0.51369156,-0.85797493,0.86668234,-0.49886042,0,0)"
     ry="0"
     y="140.11748"
     x="-599.46387"
     height="35.641827"
     width="89.685532"
     id="rect982-9-0"
     style="opacity:1;fill:#ffffff;fill-opacity:0.99356911;stroke:#00fffa;stroke-width:2.05372739;stroke-linecap:round;stroke-linejoin:round;stroke-miterlimit:4;stroke-dasharray:none;stroke-opacity:0.0160772;paint-order:normal"
     inkscape:export-filename="C:\Users\luish\Desktop\SoftwareEngineering Repo\AsTAVelo-AdminInterface\public\g1086.png"
     inkscape:export-xdpi="33"
     inkscape:export-ydpi="33" /><path
     style="fill:#ffffff;stroke-width:0.59994417"
     inkscape:connector-curvature="0"
     d="m 452.83183,73.700496 0.10239,-16.626131 -71.62332,24.215631 c -25.99273,-16.01903 -56.11203,-24.456067 -87.52413,-24.456067 -31.41213,0 -61.53136,8.437037 -87.52353,24.456567 l -71.62329,-24.216131 0.10233,16.626131 c 0.14299,23.46074 9.0544,41.258974 21.90607,56.291944 -14.34827,22.7261 -21.90607,48.59121 -21.90607,75.15434 v 82.09093 l 9.47127,2.16153 c 60.46779,13.80297 106.00883,32.4922 143.31995,58.8172 l 7.49686,5.28947 7.49688,-5.28947 c 38.12246,-26.8969 82.87394,-45.58663 140.8348,-58.8172 l 9.47137,-2.16153 v -82.09033 c 0,-26.56321 -7.55782,-52.42824 -21.90608,-75.15434 12.85098,-15.03357 21.76189,-32.831244 21.90547,-56.292544 z m -242.83706,33.501444 5.32928,-3.58794 c 22.93732,-15.443704 50.06952,-23.606774 78.46225,-23.606774 28.39273,0 55.52493,8.16307 78.46227,23.606774 l 5.32926,3.58794 47.82923,-16.171344 c -6.97124,22.988044 -27.22536,38.644884 -49.99616,56.247914 -21.4687,16.596 -43.66117,33.7575 -57.6988,59.1932 l -23.92643,38.24863 -23.9264,-38.24863 c -14.03762,-25.43633 -36.2301,-42.5972 -57.69872,-59.1932 -22.77027,-17.6024 -43.0243,-33.25927 -49.99501,-56.247414 z m 118.71507,104.96947 -0.13234,-0.0717 0.14067,0.0663 z m 24.00846,-13.1901 c 2.8591,2.39153 6.637,3.84804 10.78034,3.84804 8.84436,0 16.02379,-6.62897 16.14743,-14.84871 1.12573,2.56247 1.73953,5.3068 1.73953,8.09877 0,12.4519 -11.32076,22.97173 -24.721,22.97173 -5.42803,0 -10.72937,-1.88467 -15.01427,-5.14983 3.21567,-5.2947 6.95387,-10.24114 11.06797,-14.92 z m -144.79176,-11.0001 c 0.12367,8.2198 7.30307,14.84876 16.14687,14.84876 4.14327,0 7.92123,-1.45649 10.78093,-3.8481 4.11407,4.67884 7.85227,9.62474 11.06794,14.92001 -4.2849,3.26526 -9.58683,5.14976 -15.0143,5.14976 -13.4002,0 -24.72097,-10.5198 -24.72097,-22.97166 0,-2.79254 0.61384,-5.53627 1.73953,-8.09877 z m 50.92814,24.18493 0.14066,-0.0667 -0.132,0.0717 z m 169.12633,56.96043 c -53.21384,12.99084 -95.90078,30.79767 -132.96088,55.4762 -36.56369,-24.236 -80.04462,-42.04516 -135.42849,-55.48373 v -63.97166 c 0,-20.13821 5.14414,-39.79384 14.96147,-57.47613 6.69047,5.77786 13.7456,11.26083 20.76537,16.68876 -8.80713,8.39067 -13.98234,19.6741 -13.98234,31.7194 0,12.2271 5.19754,23.79267 14.6353,32.56513 9.42157,8.75747 21.829,13.58057 34.93654,13.58057 9.82983,0 19.40983,-2.92921 27.47456,-8.10976 l 35.40376,56.59723 35.4038,-56.59723 c 8.0647,5.18055 17.64473,8.10976 27.4745,8.10976 13.1076,0 25.51501,-4.8231 34.93656,-13.58057 9.43778,-8.77246 14.63534,-20.33743 14.63534,-32.56513 0,-12.0453 -5.17525,-23.32873 -13.98235,-31.7194 7.01975,-5.42793 14.07495,-10.9109 20.76538,-16.68876 9.81737,17.68173 14.96148,37.33792 14.96148,57.47613 z M 233.00044,120.37521 c 7.85537,-4.91458 16.26923,-8.81714 25.07703,-11.65127 12.18687,8.76673 24.05317,19.01427 35.70883,30.83594 11.6557,-11.82167 23.52197,-22.06984 35.70884,-30.83594 8.80776,2.83413 17.22163,6.73669 25.07703,11.65127 -17.6423,11.22374 -34.61297,25.84947 -51.31521,44.1864 l -9.47066,10.3976 -9.47066,-10.3976 c -16.70226,-18.33693 -33.67293,-32.96266 -51.3152,-44.1864 z"
     id="path815"
     inkscape:export-filename="C:\Users\luish\Desktop\SoftwareEngineering Repo\AsTAVelo-AdminInterface\public\g1086.png"
     inkscape:export-xdpi="33"
     inkscape:export-ydpi="33" /><g
     transform="matrix(3.3189972,0,0,3.3333332,877.52925,-425.11673)"
     id="g1086"
     style="fill:#ffffff;stroke-width:0.20043147;stroke-miterlimit:4;stroke-dasharray:none"
     inkscape:export-filename="C:\Users\luish\Desktop\SoftwareEngineering Repo\AsTAVelo-AdminInterface\public\g1086.png"
     inkscape:export-xdpi="33"
     inkscape:export-ydpi="33"><path
       inkscape:connector-curvature="0"
       d="m -218.09502,223.34187 c -18.16828,0 -33.03316,14.38379 -33.03316,31.96408 0,17.58029 14.86488,31.96409 33.03316,31.96409 18.16829,0 33.03316,-14.3838 33.03316,-31.96409 0,-17.58029 -14.86487,-31.96408 -33.03316,-31.96408 z m 0,54.33897 c -12.8829,0 -23.12325,-9.90893 -23.12325,-22.37489 0,-12.46596 10.24035,-22.37488 23.12325,-22.37488 12.88288,0 23.12325,9.90892 23.12325,22.37488 0,12.46596 -10.24037,22.37489 -23.12325,22.37489 z"
       id="path831-6"
       style="fill:#ffffff;stroke-width:0.20043147;stroke-miterlimit:4;stroke-dasharray:none" /><path
       style="opacity:1;fill:#ffffff;fill-opacity:0.99356911;stroke:#94fe02;stroke-width:0.20043147;stroke-linecap:square;stroke-linejoin:round;stroke-miterlimit:4;stroke-dasharray:0.80172589, 0.20043147;stroke-dashoffset:0;stroke-opacity:0.0160772;paint-order:normal"
       d="m -223.98782,251.73853 h 48.0553 v 9.74298 h -48.0553 z"
       id="rect982"
       inkscape:connector-curvature="0" /><path
       style="opacity:1;fill:#ffffff;fill-opacity:0.99356911;stroke:#00fffa;stroke-width:0.20044629;stroke-linecap:round;stroke-linejoin:round;stroke-miterlimit:4;stroke-dasharray:none;stroke-opacity:0.0160772;paint-order:normal"
       d="m -316.29788,-121.75304 h 26.90566 v 10.69255 h -26.90566 z"
       id="rect982-9-0-2"
       transform="matrix(0.34987863,-0.93679504,0.9306394,0.36593758,0,0)"
       inkscape:connector-curvature="0" /></g></svg>